<svg xmlns="http://www.w3.org/2000/svg" xmlns:xlink="http://www.w3.org/1999/xlink" viewBox="0 0 700 300" width="700" height="300">

  <!-- Background -->
  <rect width="700" height="300" fill="#0d1117"/>

  <!-- Pixel name -->
  <rect x="34" y="28" width="8" height="8" fill="white" rx="1"/>
  <rect x="44" y="28" width="8" height="8" fill="white" rx="1"/>
  <rect x="54" y="28" width="8" height="8" fill="white" rx="1"/>
  <rect x="24" y="38" width="8" height="8" fill="white" rx="1"/>
  <rect x="64" y="38" width="8" height="8" fill="white" rx="1"/>
  <rect x="24" y="48" width="8" height="8" fill="white" rx="1"/>
  <rect x="34" y="48" width="8" height="8" fill="white" rx="1"/>
  <rect x="44" y="48" width="8" height="8" fill="white" rx="1"/>
  <rect x="54" y="48" width="8" height="8" fill="white" rx="1"/>
  <rect x="64" y="48" width="8" height="8" fill="white" rx="1"/>
  <rect x="24" y="58" width="8" height="8" fill="white" rx="1"/>
  <rect x="64" y="58" width="8" height="8" fill="white" rx="1"/>
  <rect x="24" y="68" width="8" height="8" fill="white" rx="1"/>
  <rect x="64" y="68" width="8" height="8" fill="white" rx="1"/>
  <rect x="79" y="28" width="8" height="8" fill="white" rx="1"/>
  <rect x="89" y="28" width="8" height="8" fill="white" rx="1"/>
  <rect x="99" y="28" width="8" height="8" fill="white" rx="1"/>
  <rect x="109" y="28" width="8" height="8" fill="white" rx="1"/>
  <rect x="79" y="38" width="8" height="8" fill="white" rx="1"/>
  <rect x="119" y="38" width="8" height="8" fill="white" rx="1"/>
  <rect x="79" y="48" width="8" height="8" fill="white" rx="1"/>
  <rect x="89" y="48" width="8" height="8" fill="white" rx="1"/>
  <rect x="99" y="48" width="8" height="8" fill="white" rx="1"/>
  <rect x="109" y="48" width="8" height="8" fill="white" rx="1"/>
  <rect x="79" y="58" width="8" height="8" fill="white" rx="1"/>
  <rect x="99" y="58" width="8" height="8" fill="white" rx="1"/>
  <rect x="79" y="68" width="8" height="8" fill="white" rx="1"/>
  <rect x="109" y="68" width="8" height="8" fill="white" rx="1"/>
  <rect x="119" y="68" width="8" height="8" fill="white" rx="1"/>
  <rect x="134" y="28" width="8" height="8" fill="white" rx="1"/>
  <rect x="174" y="28" width="8" height="8" fill="white" rx="1"/>
  <rect x="144" y="38" width="8" height="8" fill="white" rx="1"/>
  <rect x="164" y="38" width="8" height="8" fill="white" rx="1"/>
  <rect x="154" y="48" width="8" height="8" fill="white" rx="1"/>
  <rect x="154" y="58" width="8" height="8" fill="white" rx="1"/>
  <rect x="154" y="68" width="8" height="8" fill="white" rx="1"/>
  <rect x="199" y="28" width="8" height="8" fill="white" rx="1"/>
  <rect x="209" y="28" width="8" height="8" fill="white" rx="1"/>
  <rect x="219" y="28" width="8" height="8" fill="white" rx="1"/>
  <rect x="189" y="38" width="8" height="8" fill="white" rx="1"/>
  <rect x="229" y="38" width="8" height="8" fill="white" rx="1"/>
  <rect x="189" y="48" width="8" height="8" fill="white" rx="1"/>
  <rect x="199" y="48" width="8" height="8" fill="white" rx="1"/>
  <rect x="209" y="48" width="8" height="8" fill="white" rx="1"/>
  <rect x="219" y="48" width="8" height="8" fill="white" rx="1"/>
  <rect x="229" y="48" width="8" height="8" fill="white" rx="1"/>
  <rect x="189" y="58" width="8" height="8" fill="white" rx="1"/>
  <rect x="229" y="58" width="8" height="8" fill="white" rx="1"/>
  <rect x="189" y="68" width="8" height="8" fill="white" rx="1"/>
  <rect x="229" y="68" width="8" height="8" fill="white" rx="1"/>
  <rect x="244" y="28" width="8" height="8" fill="white" rx="1"/>
  <rect x="284" y="28" width="8" height="8" fill="white" rx="1"/>
  <rect x="244" y="38" width="8" height="8" fill="white" rx="1"/>
  <rect x="254" y="38" width="8" height="8" fill="white" rx="1"/>
  <rect x="284" y="38" width="8" height="8" fill="white" rx="1"/>
  <rect x="244" y="48" width="8" height="8" fill="white" rx="1"/>
  <rect x="264" y="48" width="8" height="8" fill="white" rx="1"/>
  <rect x="284" y="48" width="8" height="8" fill="white" rx="1"/>
  <rect x="244" y="58" width="8" height="8" fill="white" rx="1"/>
  <rect x="274" y="58" width="8" height="8" fill="white" rx="1"/>
  <rect x="284" y="58" width="8" height="8" fill="white" rx="1"/>
  <rect x="244" y="68" width="8" height="8" fill="white" rx="1"/>
  <rect x="284" y="68" width="8" height="8" fill="white" rx="1"/>
  <rect x="364" y="28" width="8" height="8" fill="white" rx="1"/>
  <rect x="374" y="28" width="8" height="8" fill="white" rx="1"/>
  <rect x="384" y="28" width="8" height="8" fill="white" rx="1"/>
  <rect x="354" y="38" width="8" height="8" fill="white" rx="1"/>
  <rect x="394" y="38" width="8" height="8" fill="white" rx="1"/>
  <rect x="354" y="48" width="8" height="8" fill="white" rx="1"/>
  <rect x="364" y="48" width="8" height="8" fill="white" rx="1"/>
  <rect x="374" y="48" width="8" height="8" fill="white" rx="1"/>
  <rect x="384" y="48" width="8" height="8" fill="white" rx="1"/>
  <rect x="394" y="48" width="8" height="8" fill="white" rx="1"/>
  <rect x="354" y="58" width="8" height="8" fill="white" rx="1"/>
  <rect x="394" y="58" width="8" height="8" fill="white" rx="1"/>
  <rect x="354" y="68" width="8" height="8" fill="white" rx="1"/>
  <rect x="394" y="68" width="8" height="8" fill="white" rx="1"/>
  <rect x="409" y="28" width="8" height="8" fill="white" rx="1"/>
  <rect x="449" y="28" width="8" height="8" fill="white" rx="1"/>
  <rect x="409" y="38" width="8" height="8" fill="white" rx="1"/>
  <rect x="419" y="38" width="8" height="8" fill="white" rx="1"/>
  <rect x="449" y="38" width="8" height="8" fill="white" rx="1"/>
  <rect x="409" y="48" width="8" height="8" fill="white" rx="1"/>
  <rect x="429" y="48" width="8" height="8" fill="white" rx="1"/>
  <rect x="449" y="48" width="8" height="8" fill="white" rx="1"/>
  <rect x="409" y="58" width="8" height="8" fill="white" rx="1"/>
  <rect x="439" y="58" width="8" height="8" fill="white" rx="1"/>
  <rect x="449" y="58" width="8" height="8" fill="white" rx="1"/>
  <rect x="409" y="68" width="8" height="8" fill="white" rx="1"/>
  <rect x="449" y="68" width="8" height="8" fill="white" rx="1"/>
  <rect x="474" y="28" width="8" height="8" fill="white" rx="1"/>
  <rect x="484" y="28" width="8" height="8" fill="white" rx="1"/>
  <rect x="494" y="28" width="8" height="8" fill="white" rx="1"/>
  <rect x="464" y="38" width="8" height="8" fill="white" rx="1"/>
  <rect x="504" y="38" width="8" height="8" fill="white" rx="1"/>
  <rect x="464" y="48" width="8" height="8" fill="white" rx="1"/>
  <rect x="474" y="48" width="8" height="8" fill="white" rx="1"/>
  <rect x="484" y="48" width="8" height="8" fill="white" rx="1"/>
  <rect x="494" y="48" width="8" height="8" fill="white" rx="1"/>
  <rect x="504" y="48" width="8" height="8" fill="white" rx="1"/>
  <rect x="464" y="58" width="8" height="8" fill="white" rx="1"/>
  <rect x="504" y="58" width="8" height="8" fill="white" rx="1"/>
  <rect x="464" y="68" width="8" height="8" fill="white" rx="1"/>
  <rect x="504" y="68" width="8" height="8" fill="white" rx="1"/>
  <rect x="519" y="28" width="8" height="8" fill="white" rx="1"/>
  <rect x="559" y="28" width="8" height="8" fill="white" rx="1"/>
  <rect x="519" y="38" width="8" height="8" fill="white" rx="1"/>
  <rect x="529" y="38" width="8" height="8" fill="white" rx="1"/>
  <rect x="559" y="38" width="8" height="8" fill="white" rx="1"/>
  <rect x="519" y="48" width="8" height="8" fill="white" rx="1"/>
  <rect x="539" y="48" width="8" height="8" fill="white" rx="1"/>
  <rect x="559" y="48" width="8" height="8" fill="white" rx="1"/>
  <rect x="519" y="58" width="8" height="8" fill="white" rx="1"/>
  <rect x="549" y="58" width="8" height="8" fill="white" rx="1"/>
  <rect x="559" y="58" width="8" height="8" fill="white" rx="1"/>
  <rect x="519" y="68" width="8" height="8" fill="white" rx="1"/>
  <rect x="559" y="68" width="8" height="8" fill="white" rx="1"/>
  <rect x="574" y="28" width="8" height="8" fill="white" rx="1"/>
  <rect x="584" y="28" width="8" height="8" fill="white" rx="1"/>
  <rect x="594" y="28" width="8" height="8" fill="white" rx="1"/>
  <rect x="604" y="28" width="8" height="8" fill="white" rx="1"/>
  <rect x="574" y="38" width="8" height="8" fill="white" rx="1"/>
  <rect x="614" y="38" width="8" height="8" fill="white" rx="1"/>
  <rect x="574" y="48" width="8" height="8" fill="white" rx="1"/>
  <rect x="614" y="48" width="8" height="8" fill="white" rx="1"/>
  <rect x="574" y="58" width="8" height="8" fill="white" rx="1"/>
  <rect x="614" y="58" width="8" height="8" fill="white" rx="1"/>
  <rect x="574" y="68" width="8" height="8" fill="white" rx="1"/>
  <rect x="584" y="68" width="8" height="8" fill="white" rx="1"/>
  <rect x="594" y="68" width="8" height="8" fill="white" rx="1"/>
  <rect x="604" y="68" width="8" height="8" fill="white" rx="1"/>

  <!-- Badges -->
  <rect x="24" y="108" width="90" height="22" fill="white" rx="2"/>
  <text x="69" y="123" font-family="'Courier New',monospace" font-size="11" font-weight="700" fill="#0d1117" text-anchor="middle" letter-spacing="0.5">FULL-STACK</text>
  <rect x="137" y="108" width="55" height="22" fill="white" rx="2"/>
  <text x="164" y="123" font-family="'Courier New',monospace" font-size="11" font-weight="700" fill="#0d1117" text-anchor="middle" letter-spacing="0.5">UI/UX</text>
  <rect x="205" y="108" width="104" height="22" fill="none" stroke="white" stroke-width="1" rx="2"/>
  <text x="257" y="123" font-family="'Courier New',monospace" font-size="11" font-weight="700" fill="white" text-anchor="middle" letter-spacing="0.5">OPEN TO WORK</text>

  <!-- Tagline -->
  <text x="24" y="160" font-family="'Courier New',monospace" font-size="13" fill="white" font-weight="700" letter-spacing="0.3">building products that feel as good as they work.</text>
  <text x="24" y="180" font-family="'Courier New',monospace" font-size="11" fill="#555555" letter-spacing="0.2">lpu · kalvium spe · 2028</text>

  <!-- Links -->
  <a href="https://www.linkedin.com/in/aryan-anand-a16304357/">
    <rect x="24" y="230" width="98" height="24" fill="none" stroke="#444" stroke-width="1" rx="2"/>
    <text x="73" y="246" font-family="'Courier New',monospace" font-size="11" fill="#aaaaaa" text-anchor="middle">→ linkedin</text>
  </a>
  <a href="https://github.com/Aryan241006">
    <rect x="130" y="230" width="84" height="24" fill="none" stroke="#444" stroke-width="1" rx="2"/>
    <text x="172" y="246" font-family="'Courier New',monospace" font-size="11" fill="#aaaaaa" text-anchor="middle">→ github</text>
  </a>
  <a href="https://torre.ai/aryananand?r=zBRBYgXY">
    <rect x="218" y="230" width="98" height="24" fill="none" stroke="#444" stroke-width="1" rx="2"/>
    <text x="267" y="246" font-family="'Courier New',monospace" font-size="11" fill="#aaaaaa" text-anchor="middle">→ torre.ai</text>
  </a>
  <a href="mailto:xryxnxnxnd@gmail.com">
    <rect x="316" y="230" width="77" height="24" fill="none" stroke="#444" stroke-width="1" rx="2"/>
    <text x="354" y="246" font-family="'Courier New',monospace" font-size="11" fill="#aaaaaa" text-anchor="middle">→ email</text>
  </a>

  <!-- Footer -->
  <text x="24" y="284" font-family="'Courier New',monospace" font-size="11" fill="#333333">// aryan241006</text>

</svg>